<svg width="37" height="46" viewBox="0 0 37 46" fill="none" xmlns="http://www.w3.org/2000/svg">
<path d="M5.37413 15.7006C8.23231 13.2629 14.4846 12.2182 18.9505 15.7006C28.7755 10.8252 34.075 15.0041 35.385 17.9642C26.8105 25.0684 32.765 31.952 36.8141 34.5058C35.8665 40.1796 30.9972 44.2181 28.3099 45.763C28.0308 45.9235 27.7132 46.0055 27.3932 45.9705C25.254 45.7363 23.2147 44.0702 20.5582 43.9083C18.4017 43.777 15.313 45.7519 12.3412 45.977C11.9906 46.0036 11.6329 45.8995 11.331 45.7192C-7.892 34.2431 2.53896 18.1187 5.37413 15.7006Z" fill="white"/>
<path d="M18.9155 10.0971C18.5865 7.40453 19.6722 1.61553 26.647 0C27.0308 3.05972 26.0219 9.36275 18.9155 10.0971Z" fill="white"/>
</svg>
