<svg width="34" height="38" viewBox="0 0 34 38" fill="none" xmlns="http://www.w3.org/2000/svg">
<path fill-rule="evenodd" clip-rule="evenodd" d="M0 2.00289V35.0687C0 35.4343 0.0942081 35.7677 0.255842 36.0532L0.173626 36.1189L0.798321 36.8998L0.955357 36.7742C1.53363 37.1281 2.28779 37.1934 2.96483 36.8206L26.5284 23.8433C26.712 23.925 26.9348 23.8906 27.0855 23.74C27.1647 23.6608 27.2117 23.5616 27.2267 23.4587L32.8047 20.3867C34.1809 19.6287 34.1859 17.6527 32.8136 16.8878L2.97371 0.25592C1.6406 -0.487116 0 0.476691 0 2.00289ZM27.2267 23.4587C27.2486 23.3078 27.2015 23.1489 27.0855 23.0329L23.1018 19.0492L28.0206 15.0247C28.2343 14.8499 28.2658 14.5349 28.091 14.3211C27.9161 14.1074 27.6011 14.0759 27.3874 14.2508L22.362 18.3625L1.29381 0.646077C1.08246 0.468352 0.767054 0.495609 0.589329 0.706958C0.411603 0.918307 0.438861 1.23371 0.65021 1.41144L21.5693 19.0025L0.255842 36.0532C0.425235 36.3523 0.668682 36.5987 0.955357 36.7742L22.3205 19.6821L26.3784 23.74C26.423 23.7846 26.474 23.819 26.5284 23.8433L27.2267 23.4587Z" fill="white"/>
</svg>
