<svg width="89" height="84" viewBox="0 0 89 84" fill="none" xmlns="http://www.w3.org/2000/svg">
<g clip-path="url(#clip0_342_2405)">
<path d="M85.6861 41.9515C85.6861 64.8683 67.1494 83.4472 44.2798 83.4472C21.4101 83.4472 2.87341 64.8683 2.87341 41.9515C2.87341 19.0347 21.4106 0.455566 44.2798 0.455566C67.149 0.455566 85.6861 19.0329 85.6861 41.9515Z" fill="white"/>
<path d="M44.2756 0.455566C21.4141 0.455566 2.84454 19.061 2.87365 41.9502C2.87938 46.5296 3.60807 50.9347 4.97571 55.0552H17.3641V20.1478L44.2756 47.1164L71.1858 20.1478V55.0559H83.5768C84.9464 50.9356 85.6714 46.5305 85.6795 41.9508C85.7186 19.0378 67.1395 0.46109 44.2756 0.46109V0.455566Z" fill="#F26822"/>
<path d="M38.0782 53.3161L26.3339 41.5464V63.5113H17.3548L8.88191 63.5129C16.1496 75.4616 29.2841 83.4544 44.2671 83.4544C59.2502 83.4544 72.3853 75.4598 79.6544 63.5111H62.1978V41.5464L50.4527 53.3161L44.2658 59.516L38.0787 53.3161H38.0782Z" fill="#4D4D4D"/>
</g>
<defs>
<clipPath id="clip0_342_2405">
<rect width="88" height="83" fill="white" transform="translate(0.893799 0.455566)"/>
</clipPath>
</defs>
</svg>
