<svg width="92" height="92" viewBox="0 0 92 92" fill="none" xmlns="http://www.w3.org/2000/svg">
<g clip-path="url(#clip0_342_2404)">
<path d="M46.3938 91.4556C71.5228 91.4556 91.8938 71.0845 91.8938 45.9556C91.8938 20.8266 71.5228 0.455566 46.3938 0.455566C21.2648 0.455566 0.893799 20.8266 0.893799 45.9556C0.893799 71.0845 21.2648 91.4556 46.3938 91.4556Z" fill="#2AB8E6"/>
<path d="M32.0613 17.5181H60.7263L63.4563 20.3419V71.5692L60.7263 74.3931H32.0613L29.3313 71.5692V20.3419L32.0613 17.5181ZM34.7913 68.7425H57.9963V23.1686H34.7913V68.7425ZM55.0786 54.0403H49.1437V60.4758H43.7861V54.0432H37.8512V48.5007H55.0786V54.0403ZM55.0786 38.1665V43.7062H37.8512V38.1665H43.7861V31.7311H49.1437V38.1665H55.0786Z" fill="#212135"/>
</g>
<defs>
<clipPath id="clip0_342_2404">
<rect width="91" height="91" fill="white" transform="translate(0.893799 0.455566)"/>
</clipPath>
</defs>
</svg>
