<svg width="26" height="20" viewBox="0 0 26 20" fill="none" xmlns="http://www.w3.org/2000/svg">
<path d="M10.9778 5.63284C8.85325 7.28981 4.52842 2.75102 2.50591 0.7545C2.37857 0.628794 2.21772 0.527325 2.03883 0.531301C0.659056 0.561968 0.748336 3.80522 1.04342 6.01897C1.10212 6.45935 0.810706 6.86188 0.617261 7.26182C0.11172 8.30703 1.67167 10.168 2.95213 11.3682C3.19028 11.5914 3.13842 11.989 2.84502 12.132C2.57628 12.263 2.50589 12.6138 2.70329 12.8384L4.74096 15.156C5.22405 15.7055 4.97288 16.5707 4.27066 16.7761L2.83954 17.1947C1.92125 17.4632 1.89048 18.7109 2.80894 18.9789C17.8658 23.3724 22.5894 12.5672 23.0892 5.9663C23.1058 5.74769 23.1883 5.54257 23.3307 5.37592L25.229 3.15513C25.5323 2.80033 25.2802 2.25315 24.8134 2.25315C24.5114 2.25315 24.2667 2.00836 24.2667 1.70641V1.33846C24.2667 0.694748 23.6194 0.252415 23.0197 0.486289L21.7297 0.989335C21.5029 1.07778 21.2431 1.07658 21.0134 0.996C12.1788 -2.10335 13.8281 3.4098 10.9778 5.63284Z" fill="#7E45E9"/>
</svg>
